<svg id="Layer_2" data-name="Layer 2" xmlns="http://www.w3.org/2000/svg" viewBox="0 0 740.323 842.489" style="width: 100%; height: 100%;">
  <g id="Layer_2-2" data-name="Layer 2">
    <g>
      <g>
        <g>
          <g>
            <path d="m487.23,55.589h208.729c8.256,0,14.959,6.703,14.959,14.959v151.952c0,8.252-6.7,14.952-14.952,14.952h-208.744c-8.252,0-14.952-6.7-14.952-14.952V70.548c0-8.256,6.703-14.959,14.959-14.959Z" transform="translate(1183.19 293.042) rotate(-180)" fill="#fff"></path>
            <path d="m471.646,222.493V70.541c0-8.603,6.974-15.577,15.577-15.577h208.745c8.603,0,15.577,6.974,15.577,15.577v151.952c0,8.607-6.977,15.584-15.584,15.584h-208.73c-8.607,0-15.584-6.977-15.584-15.584Zm15.577-166.279c-7.912,0-14.327,6.414-14.327,14.327v151.952c0,7.916,6.418,14.334,14.334,14.334h208.73c7.916,0,14.334-6.418,14.334-14.334V70.541c0-7.912-6.414-14.327-14.327-14.327h-208.745Z" fill="#292a2e"></path>
          </g>
          <path d="m472.272,70.539v12.665s238.645,0,238.645,0v-12.665c0-8.258-6.694-14.952-14.952-14.952h-208.742c-8.258,0-14.952,6.694-14.952,14.952Z" fill="#292a2e"></path>
        </g>
        <path d="m553.773,103.666h-11.261c-.276,0-.5-.224-.5-.5s.224-.5.5-.5h11.261c.276,0,.5.224.5.5s-.224.5-.5.5Z" fill="#292a2e"></path>
        <g>
          <path d="m534.391,103.666h-4.261c-.276,0-.5-.224-.5-.5s.224-.5.5-.5h4.261c.276,0,.5.224.5.5s-.224.5-.5.5Z" fill="#367cff"></path>
          <path d="m534.391,112.686h-4.261c-.276,0-.5-.224-.5-.5s.224-.5.5-.5h4.261c.276,0,.5.224.5.5s-.224.5-.5.5Z" fill="#367cff"></path>
          <path d="m534.391,121.706h-4.261c-.276,0-.5-.224-.5-.5s.224-.5.5-.5h4.261c.276,0,.5.224.5.5s-.224.5-.5.5Z" fill="#367cff"></path>
          <path d="m534.391,130.726h-4.261c-.276,0-.5-.224-.5-.5s.224-.5.5-.5h4.261c.276,0,.5.224.5.5s-.224.5-.5.5Z" fill="#367cff"></path>
          <path d="m534.391,139.746h-4.261c-.276,0-.5-.224-.5-.5s.224-.5.5-.5h4.261c.276,0,.5.224.5.5s-.224.5-.5.5Z" fill="#367cff"></path>
          <path d="m534.391,148.766h-4.261c-.276,0-.5-.224-.5-.5s.224-.5.5-.5h4.261c.276,0,.5.224.5.5s-.224.5-.5.5Z" fill="#367cff"></path>
          <path d="m534.391,157.786h-4.261c-.276,0-.5-.224-.5-.5s.224-.5.5-.5h4.261c.276,0,.5.224.5.5s-.224.5-.5.5Z" fill="#367cff"></path>
          <path d="m534.391,166.806h-4.261c-.276,0-.5-.224-.5-.5s.224-.5.5-.5h4.261c.276,0,.5.224.5.5s-.224.5-.5.5Z" fill="#367cff"></path>
          <path d="m534.391,175.826h-4.261c-.276,0-.5-.224-.5-.5s.224-.5.5-.5h4.261c.276,0,.5.224.5.5s-.224.5-.5.5Z" fill="#367cff"></path>
          <path d="m534.391,184.846h-4.261c-.276,0-.5-.224-.5-.5s.224-.5.5-.5h4.261c.276,0,.5.224.5.5s-.224.5-.5.5Z" fill="#367cff"></path>
          <path d="m534.391,193.866h-4.261c-.276,0-.5-.224-.5-.5s.224-.5.5-.5h4.261c.276,0,.5.224.5.5s-.224.5-.5.5Z" fill="#367cff"></path>
          <path d="m534.391,202.886h-4.261c-.276,0-.5-.224-.5-.5s.224-.5.5-.5h4.261c.276,0,.5.224.5.5s-.224.5-.5.5Z" fill="#367cff"></path>
          <path d="m534.391,211.906h-4.261c-.276,0-.5-.224-.5-.5s.224-.5.5-.5h4.261c.276,0,.5.224.5.5s-.224.5-.5.5Z" fill="#367cff"></path>
          <path d="m534.391,220.927h-4.261c-.276,0-.5-.224-.5-.5s.224-.5.5-.5h4.261c.276,0,.5.224.5.5s-.224.5-.5.5Z" fill="#367cff"></path>
        </g>
        <path d="m562.773,112.686h-10.261c-.276,0-.5-.224-.5-.5s.224-.5.5-.5h10.261c.276,0,.5.224.5.5s-.224.5-.5.5Z" fill="#292a2e"></path>
        <path d="m553.773,166.806h-11.261c-.276,0-.5-.224-.5-.5s.224-.5.5-.5h11.261c.276,0,.5.224.5.5s-.224.5-.5.5Z" fill="#292a2e"></path>
        <path d="m562.773,175.826h-10.261c-.276,0-.5-.224-.5-.5s.224-.5.5-.5h10.261c.276,0,.5.224.5.5s-.224.5-.5.5Z" fill="#292a2e"></path>
        <g>
          <path d="m620.773,121.706h-61.261c-.276,0-.5-.224-.5-.5s.224-.5.5-.5h61.261c.276,0,.5.224.5.5s-.224.5-.5.5Z" fill="#292a2e"></path>
          <path d="m674.86,121.706h-43.261c-.276,0-.5-.224-.5-.5s.224-.5.5-.5h43.261c.276,0,.5.224.5.5s-.224.5-.5.5Z" fill="#0cbc8b"></path>
          <path d="m698.076,121.706h-13.261c-.276,0-.5-.224-.5-.5s.224-.5.5-.5h13.261c.276,0,.5.224.5.5s-.224.5-.5.5Z" fill="#292a2e"></path>
        </g>
        <g>
          <path d="m650.773,139.746h-91.261c-.276,0-.5-.224-.5-.5s.224-.5.5-.5h91.261c.276,0,.5.224.5.5s-.224.5-.5.5Z" fill="#292a2e"></path>
          <path d="m674.86,139.746h-13.261c-.276,0-.5-.224-.5-.5s.224-.5.5-.5h13.261c.276,0,.5.224.5.5s-.224.5-.5.5Z" fill="#367cff"></path>
        </g>
        <g>
          <path d="m570.773,130.726h-11.261c-.276,0-.5-.224-.5-.5s.224-.5.5-.5h11.261c.276,0,.5.224.5.5s-.224.5-.5.5Z" fill="#0cbc8b"></path>
          <path d="m644.86,130.726h-63.261c-.276,0-.5-.224-.5-.5s.224-.5.5-.5h63.261c.276,0,.5.224.5.5s-.224.5-.5.5Z" fill="#367cff"></path>
          <path d="m698.163,130.726h-41.261c-.276,0-.5-.224-.5-.5s.224-.5.5-.5h41.261c.276,0,.5.224.5.5s-.224.5-.5.5Z" fill="#292a2e"></path>
        </g>
        <g>
          <path d="m620.773,148.766h-61.261c-.276,0-.5-.224-.5-.5s.224-.5.5-.5h61.261c.276,0,.5.224.5.5s-.224.5-.5.5Z" fill="#292a2e"></path>
          <path d="m654.86,148.766h-23.261c-.276,0-.5-.224-.5-.5s.224-.5.5-.5h23.261c.276,0,.5.224.5.5s-.224.5-.5.5Z" fill="#0cbc8b"></path>
          <path d="m698.076,148.766h-33.261c-.276,0-.5-.224-.5-.5s.224-.5.5-.5h33.261c.276,0,.5.224.5.5s-.224.5-.5.5Z" fill="#292a2e"></path>
        </g>
        <g>
          <path d="m570.773,157.786h-11.261c-.276,0-.5-.224-.5-.5s.224-.5.5-.5h11.261c.276,0,.5.224.5.5s-.224.5-.5.5Z" fill="#367cff"></path>
          <path d="m644.86,157.786h-63.261c-.276,0-.5-.224-.5-.5s.224-.5.5-.5h63.261c.276,0,.5.224.5.5s-.224.5-.5.5Z" fill="#0cbc8b"></path>
        </g>
        <g>
          <path d="m618.773,193.866h-61.261c-.276,0-.5-.224-.5-.5s.224-.5.5-.5h61.261c.276,0,.5.224.5.5s-.224.5-.5.5Z" fill="#292a2e"></path>
          <path d="m672.86,193.866h-43.261c-.276,0-.5-.224-.5-.5s.224-.5.5-.5h43.261c.276,0,.5.224.5.5s-.224.5-.5.5Z" fill="#367cff"></path>
        </g>
        <g>
          <path d="m588.773,184.846h-31.261c-.276,0-.5-.224-.5-.5s.224-.5.5-.5h31.261c.276,0,.5.224.5.5s-.224.5-.5.5Z" fill="#0cbc8b"></path>
          <path d="m642.86,184.846h-43.261c-.276,0-.5-.224-.5-.5s.224-.5.5-.5h43.261c.276,0,.5.224.5.5s-.224.5-.5.5Z" fill="#367cff"></path>
          <path d="m696.163,184.846h-41.261c-.276,0-.5-.224-.5-.5s.224-.5.5-.5h41.261c.276,0,.5.224.5.5s-.224.5-.5.5Z" fill="#292a2e"></path>
        </g>
        <g>
          <path d="m648.773,211.907h-91.261c-.276,0-.5-.224-.5-.5s.224-.5.5-.5h91.261c.276,0,.5.224.5.5s-.224.5-.5.5Z" fill="#367cff"></path>
          <path d="m672.86,211.907h-13.261c-.276,0-.5-.224-.5-.5s.224-.5.5-.5h13.261c.276,0,.5.224.5.5s-.224.5-.5.5Z" fill="#292a2e"></path>
        </g>
        <g>
          <path d="m568.773,202.887h-11.261c-.276,0-.5-.224-.5-.5s.224-.5.5-.5h11.261c.276,0,.5.224.5.5s-.224.5-.5.5Z" fill="#367cff"></path>
          <path d="m642.86,202.887h-63.261c-.276,0-.5-.224-.5-.5s.224-.5.5-.5h63.261c.276,0,.5.224.5.5s-.224.5-.5.5Z" fill="#292a2e"></path>
          <path d="m696.163,202.887h-41.261c-.276,0-.5-.224-.5-.5s.224-.5.5-.5h41.261c.276,0,.5.224.5.5s-.224.5-.5.5Z" fill="#0cbc8b"></path>
        </g>
        <g>
          <path d="m618.773,220.927h-61.261c-.276,0-.5-.224-.5-.5s.224-.5.5-.5h61.261c.276,0,.5.224.5.5s-.224.5-.5.5Z" fill="#0cbc8b"></path>
          <path d="m652.86,220.927h-23.261c-.276,0-.5-.224-.5-.5s.224-.5.5-.5h23.261c.276,0,.5.224.5.5s-.224.5-.5.5Z" fill="#292a2e"></path>
          <path d="m696.076,220.927h-33.261c-.276,0-.5-.224-.5-.5s.224-.5.5-.5h33.261c.276,0,.5.224.5.5s-.224.5-.5.5Z" fill="#367cff"></path>
        </g>
        <path d="m525.381,230.579c-.276,0-.5-.224-.5-.5V87.92c0-.276.224-.5.5-.5s.5.224.5.5v142.158c0,.276-.224.5-.5.5Z" fill="#292a2e"></path>
        <circle cx="692.838" cy="70.395" r="8.022" fill="#fff"></circle>
        <g>
          <path d="m502.512,94.166h-21.652c-.276,0-.5-.224-.5-.5s.224-.5.5-.5h21.652c.276,0,.5.224.5.5s-.224.5-.5.5Z" fill="#292a2e"></path>
          <path d="m495.989,104.028h-15.13c-.276,0-.5-.224-.5-.5s.224-.5.5-.5h15.13c.276,0,.5.224.5.5s-.224.5-.5.5Z" fill="#292a2e"></path>
          <path d="m509.294,113.89h-28.435c-.276,0-.5-.224-.5-.5s.224-.5.5-.5h28.435c.276,0,.5.224.5.5s-.224.5-.5.5Z" fill="#292a2e"></path>
          <path d="m514.599,123.752h-23.739c-.276,0-.5-.224-.5-.5s.224-.5.5-.5h23.739c.276,0,.5.224.5.5s-.224.5-.5.5Z" fill="#292a2e"></path>
          <path d="m503.12,133.615h-12.261c-.276,0-.5-.224-.5-.5s.224-.5.5-.5h12.261c.276,0,.5.224.5.5s-.224.5-.5.5Z" fill="#292a2e"></path>
          <path d="m512.512,143.477h-21.652c-.276,0-.5-.224-.5-.5s.224-.5.5-.5h21.652c.276,0,.5.224.5.5s-.224.5-.5.5Z" fill="#292a2e"></path>
          <path d="m497.555,153.339h-16.695c-.276,0-.5-.224-.5-.5s.224-.5.5-.5h16.695c.276,0,.5.224.5.5s-.224.5-.5.5Z" fill="#292a2e"></path>
          <path d="m491.816,163.202h-10.956c-.276,0-.5-.224-.5-.5s.224-.5.5-.5h10.956c.276,0,.5.224.5.5s-.224.5-.5.5Z" fill="#292a2e"></path>
        </g>
        <g>
          <path d="m533.711,92.05v.18l6.25,2.32c.18.07.3.25.3.45v.17c0,.15-.07.3-.2.38-.13.09-.29.11-.44.05l-7.06-2.76c-.18-.07-.3-.25-.3-.44v-.51c0-.2.12-.37.3-.44l7.06-2.77c.06-.02.12-.03.18-.03.09,0,.18.03.26.08.13.09.2.23.2.39v.17c0,.2-.12.38-.3.44l-6.25,2.32Z" fill="#367cff"></path>
          <path d="m546.1,86.64l-3.74,11.45c-.06.19-.24.33-.45.33-.15,0-.29-.07-.37-.19-.09-.12-.12-.27-.08-.42l3.74-11.44c.07-.2.25-.34.46-.34.15,0,.28.07.37.19.09.13.12.28.07.42Z" fill="#367cff"></path>
          <path d="m555.284,91.89v.51c0,.19-.11.37-.29.44l-7.07,2.76c-.14.06-.3.04-.43-.05-.13-.08-.21-.23-.21-.38v-.17c0-.2.12-.38.31-.45l6.25-2.32v-.18l-6.25-2.32c-.19-.06-.31-.24-.31-.44v-.17c0-.16.08-.3.21-.39.08-.05.17-.08.26-.08.06,0,.12.01.17.03l7.07,2.77c.18.07.29.24.29.44Z" fill="#367cff"></path>
        </g>
      </g>
      <g>
        <rect id="c_3_c" x="61.675" y="0" width="352.225" height="352.225" fill="#f4f4f4"></rect>
        <rect id="c_3_c-2" data-name="c_3_c" x="57.638" y="0" width="4.037" height="352.225" fill="#f4f4f4"></rect>
        <rect id="c_3_c-3" data-name="c_3_c" x="57.638" y="0" width="4.037" height="352.225" fill="#292a2e" opacity=".05"></rect>
        <polygon id="c_3_c-4" data-name="c_3_c" points="147.003 242.712 147.003 150.558 222.491 150.558 222.491 204.098 339.421 204.098 339.421 298.895 389.118 298.895 389.118 352.225 339.421 352.225 329.847 352.225 78.619 352.225 78.619 242.712 147.003 242.712" fill="#292a2e" opacity=".05"></polygon>
        <g id="c_3_wh">
          <rect id="c_3_wh-2" data-name="c_3_wh" x="157.83" y="160.564" width="54.971" height="10.006" fill="#fffffa" opacity=".34"></rect>
          <rect id="c_3_wh-3" data-name="c_3_wh" x="157.83" y="181.298" width="54.971" height="10.006" fill="#fffffa" opacity=".34"></rect>
          <rect id="c_3_wh-4" data-name="c_3_wh" x="157.83" y="202.032" width="54.971" height="10.006" fill="#fffffa" opacity=".34"></rect>
        </g>
        <g id="c_3_wh-5" data-name="c_3_wh">
          <rect id="c_3_wh-6" data-name="c_3_wh" x="88.366" y="252.424" width="10.132" height="10.006" fill="#fffffa" opacity=".34"></rect>
          <rect id="c_3_wh-7" data-name="c_3_wh" x="88.366" y="273.158" width="10.132" height="10.006" fill="#fffffa" opacity=".34"></rect>
          <rect id="c_3_wh-8" data-name="c_3_wh" x="88.366" y="293.893" width="10.132" height="10.006" fill="#fffffa" opacity=".34"></rect>
          <rect id="c_3_wh-9" data-name="c_3_wh" x="107.11" y="252.424" width="10.132" height="10.006" fill="#fffffa" opacity=".34"></rect>
          <rect id="c_3_wh-10" data-name="c_3_wh" x="107.11" y="273.158" width="10.132" height="10.006" fill="#fffffa" opacity=".34"></rect>
          <rect id="c_3_wh-11" data-name="c_3_wh" x="107.11" y="293.893" width="10.132" height="10.006" fill="#fffffa" opacity=".34"></rect>
          <rect id="c_3_wh-12" data-name="c_3_wh" x="125.348" y="252.424" width="10.132" height="10.006" fill="#fffffa" opacity=".34"></rect>
          <rect id="c_3_wh-13" data-name="c_3_wh" x="125.348" y="273.158" width="10.132" height="10.006" fill="#fffffa" opacity=".34"></rect>
          <rect id="c_3_wh-14" data-name="c_3_wh" x="125.348" y="293.893" width="10.132" height="10.006" fill="#fffffa" opacity=".34"></rect>
        </g>
        <polygon points="61.675 174.137 132.549 174.137 132.549 0 138.41 0 138.41 174.137 329.847 174.137 329.847 0 335.708 0 335.708 174.137 413.9 174.137 413.9 179.998 335.708 179.998 335.708 352.225 329.847 352.225 329.847 179.998 138.41 179.998 138.41 352.225 132.549 352.225 132.549 179.998 61.675 179.998 61.675 174.137" fill="#fff"></polygon>
        <rect id="c_3_c-5" data-name="c_3_c" x="47.644" y="351.8" width="380.288" height="11.714" fill="#f4f4f4"></rect>
        <rect id="c_3_c-6" data-name="c_3_c" x="47.644" y="351.8" width="380.288" height="11.714" fill="#292a2e" opacity=".1"></rect>
        <rect id="c_3_c-7" data-name="c_3_c" x="42.153" y="351.8" width="5.491" height="11.714" fill="#292a2e" opacity=".1"></rect>
        <rect id="c_3_c-8" data-name="c_3_c" x="42.153" y="351.8" width="5.491" height="11.714" fill="#292a2e" opacity=".1"></rect>
        <g>
          <rect x="57.638" y="6.288" width="356.262" height="8.709" transform="translate(471.538 21.284) rotate(-180)" fill="#fff"></rect>
          <rect x="57.638" y="22.554" width="356.262" height="8.709" transform="translate(471.538 53.818) rotate(-180)" fill="#fff"></rect>
          <rect x="57.638" y="38.821" width="356.262" height="8.709" transform="translate(471.538 86.352) rotate(-180)" fill="#fff"></rect>
          <rect x="57.638" y="55.088" width="356.262" height="8.709" transform="translate(471.538 118.886) rotate(-180)" fill="#fff"></rect>
          <rect x="57.638" y="71.355" width="356.262" height="8.709" transform="translate(471.538 151.419) rotate(-180)" fill="#fff"></rect>
        </g>
        <rect x="95.478" y="0" width="5.339" height="89.887" transform="translate(196.294 89.887) rotate(-180)" fill="#fff"></rect>
        <circle cx="97.694" cy="95.461" r="7.335" fill="#fff"></circle>
      </g>
      <g>
        <g>
          <polygon points="60.748 841.816 58.784 841.438 89.48 536.407 91.444 536.785 60.748 841.816" fill="#494949"></polygon>
          <polygon points="175.046 841.816 173.082 841.438 203.777 536.407 205.741 536.785 175.046 841.816" fill="#494949"></polygon>
          <g>
            <polygon points="427.694 841.816 429.658 841.438 398.962 536.407 396.998 536.785 427.694 841.816" fill="#494949"></polygon>
            <polygon points="313.396 841.816 315.36 841.438 284.665 536.407 282.701 536.785 313.396 841.816" fill="#494949"></polygon>
          </g>
          <rect x="279.667" y="401.696" width="2" height="135.496" transform="translate(-59.662 41.276) rotate(-7.605)" fill="#494949"></rect>
          <rect x="73.843" y="401.696" width="2" height="135.496" transform="translate(-61.473 14.035) rotate(-7.605)" fill="#494949"></rect>
          <g>
            <rect x="79.293" y="526.761" width="220.99" height="19.671" rx="9.835" ry="9.835" fill="#292a2e"></rect>
            <rect x="79.293" y="526.761" width="220.99" height="19.671" rx="9.835" ry="9.835" fill="#fff" opacity=".8"></rect>
            <path d="m290.448,547.431H89.129c-5.975,0-10.835-4.861-10.835-10.835s4.86-10.835,10.835-10.835h201.32c5.975,0,10.835,4.86,10.835,10.835s-4.861,10.835-10.835,10.835Zm-201.32-19.67c-4.872,0-8.835,3.963-8.835,8.835s3.963,8.835,8.835,8.835h201.32c4.872,0,8.835-3.963,8.835-8.835s-3.963-8.835-8.835-8.835H89.129Z" fill="#292a2e"></path>
          </g>
          <g>
            <rect x="189.789" y="526.761" width="220.99" height="19.671" rx="9.835" ry="9.835" fill="#fff"></rect>
            <path d="m400.944,547.431h-201.319c-5.975,0-10.835-4.861-10.835-10.835s4.861-10.835,10.835-10.835h201.319c5.975,0,10.836,4.86,10.836,10.835s-4.861,10.835-10.836,10.835Zm-201.319-19.67c-4.872,0-8.835,3.963-8.835,8.835s3.963,8.835,8.835,8.835h201.319c4.872,0,8.836-3.963,8.836-8.835s-3.964-8.835-8.836-8.835h-201.319Z" fill="#292a2e"></path>
          </g>
          <g>
            <path d="m261.66,402.292H66.413c-6.603,0-12.182-4.899-13.035-11.447l-12.915-99.18c-1.024-7.867,5.101-14.842,13.035-14.842h195.247c6.603,0,12.182,4.899,13.035,11.447l12.915,99.18c1.024,7.867-5.101,14.842-13.035,14.842Z" fill="#292a2e"></path>
            <path d="m261.66,402.292H66.413c-6.603,0-12.182-4.899-13.035-11.447l-12.915-99.18c-1.024-7.867,5.101-14.842,13.035-14.842h195.247c6.603,0,12.182,4.899,13.035,11.447l12.915,99.18c1.024,7.867-5.101,14.842-13.035,14.842Z" fill="#fff" opacity=".8"></path>
            <path d="m261.66,403.292H66.413c-7.082,0-13.112-5.296-14.026-12.318l-12.915-99.18c-.525-4.035.713-8.103,3.398-11.16s6.559-4.811,10.628-4.811h195.247c7.082,0,13.112,5.296,14.026,12.319l12.915,99.18c.525,4.035-.713,8.102-3.398,11.16s-6.559,4.811-10.628,4.811Zm-208.162-125.469c-3.494,0-6.82,1.506-9.125,4.131-2.306,2.625-3.369,6.118-2.917,9.582l12.915,99.18c.785,6.029,5.962,10.576,12.043,10.576h195.247c3.494,0,6.82-1.506,9.125-4.131,2.306-2.625,3.369-6.118,2.918-9.582l-12.915-99.18c-.785-6.03-5.962-10.577-12.043-10.577H53.498Z" fill="#292a2e"></path>
          </g>
          <g>
            <path d="m272.7,402.292H77.453c-6.603,0-12.182-4.899-13.035-11.447l-12.915-99.18c-1.024-7.867,5.101-14.842,13.035-14.842h195.247c6.603,0,12.182,4.899,13.035,11.447l12.915,99.18c1.024,7.867-5.101,14.842-13.035,14.842Z" fill="#fff"></path>
            <path d="m272.7,403.292H77.453c-7.082,0-13.112-5.296-14.026-12.318l-12.915-99.18c-.525-4.035.713-8.103,3.398-11.16s6.559-4.811,10.628-4.811h195.247c7.082,0,13.112,5.296,14.026,12.319l12.915,99.18c.525,4.035-.713,8.102-3.398,11.16s-6.559,4.811-10.628,4.811Zm-208.162-125.469c-3.494,0-6.82,1.505-9.125,4.131-2.306,2.625-3.369,6.118-2.918,9.583l12.915,99.18c.785,6.029,5.962,10.576,12.043,10.576h195.247c3.494,0,6.82-1.506,9.125-4.131,2.306-2.625,3.369-6.118,2.918-9.582l-12.915-99.18c-.785-6.03-5.962-10.577-12.043-10.577H64.539Z" fill="#292a2e"></path>
          </g>
        </g>
        <g>
          <g>
            <path id="sk" d="m243.119,206.957c-.196-.026-2.37,36.052-44.283,32.907-29.016-2.174-39.361-32.958-40.026-32.958,3.128-.665,6.994-1.674,8.531-2.02,5.105-1.15,11.477-5.363,12.95-14.235.849-5.114-.591-31.276-.148-36.45l44.539,9.941c-.622,10.928-4.978,36.261,10.288,40.745,2.54.742,5.276,1.423,8.149,2.071Z" fill="#ff9e85"></path>
            <path id="sh" d="m225.306,194.533c-.631-2.014-1.006-3.765-1.34-6.913-.596-5.629-.279-10.805.291-16.078-8.998-1.198-17.636-4.982-24.616-10.785-.827,3.054-5.375,16.4-4.116,19.303,2.38,5.487,13.566,14.472,29.781,14.472Z" fill="#0c0c0c" opacity=".22"></path>
            <g>
              <path d="m251.792,125.653s12.781-9.498,16.095-31.555c2.566-17.079-13.287-6.12-13.287-6.12,0,0,1.728-12.315-7.259-11.159-8.987,1.156-14.117,14.069-14.117,14.069" fill="#0c0c0c"></path>
              <path d="m200.904,77.914s-44.6,4.445-28.942,64.953l3.941.294,8.001.596" fill="#0c0c0c"></path>
              <path d="m216.864,186.707c-17.559-1.707-38.506-12.966-38.631-36.819l-.113-21.523c-.125-23.853,12.302-43.255,34.761-43.373h0c22.459-.118,39.347,19.131,39.472,42.984l.05,9.529c.01,1.961-.177,5.482-.787,9.773-1.216,8.562-3.099,21.58-8.982,30.352-5.555,8.281-14.552,10.168-25.77,9.077Z" fill="#ff9e85"></path>
              <g>
                <g>
                  <circle id="e1_eye" cx="243.551" cy="139.814" r="2.449" transform="translate(70.321 360.848) rotate(-81.772)" fill="#0a0a0a"></circle>
                  <g id="e1_n">
                    <path d="m224.747,156.261c-.49-.071-.857-.502-.837-1.008.021-.541.476-.962,1.017-.94l5.212.206-1.677-10.713c-.083-.534.282-1.035.817-1.119.534-.083,1.035.282,1.119.816l1.861,11.89c.045.289-.042.584-.237.803s-.477.339-.77.327l-6.403-.253c-.035-.001-.069-.005-.102-.009Z" fill="#0a0a0a"></path>
                  </g>
                  <g id="e1_m">
                    <path d="m222.02,167.075c-8.788-1.271-10.635-6.959-10.717-7.225-.158-.517.133-1.065.65-1.224.514-.159,1.06.13,1.221.644.077.242,2.006,5.845,11.844,6.088.552.011.969.463.956,1.004-.013.541-.463.968-1.003.955-1.061-.026-2.044-.11-2.951-.241Z" fill="#0a0a0a"></path>
                  </g>
                  <path id="e1_eb" d="m220.922,127.243c.128.756-3.308,1.614-7.145,2.07s-7.284.686-7.404-.261c-.151-1.196,2.993-3.507,6.831-3.962,3.837-.456,7.516.965,7.718,2.154Z" fill="#0a0a0a"></path>
                  <circle id="e1_eye-2" data-name="e1_eye" cx="219.022" cy="137.844" r="2.449" transform="translate(51.252 334.884) rotate(-81.772)" fill="#0a0a0a"></circle>
                </g>
                <path id="e1_eb-2" data-name="e1_eb" d="m249.634,132.165c-.189.743-3.017.253-6.709-.887-3.692-1.14-6.936-2.328-6.661-3.243.347-1.155,3.777-2.131,7.47-.99,3.692,1.14,6.199,3.952,5.901,5.12Z" fill="#0a0a0a"></path>
              </g>
              <path d="m179.666,157.147c-6.825.036-12.396-7.237-12.432-14.062-.036-6.825,5.477-10.618,12.303-10.654l3.541,4.555,2.457,20.131-5.868.031Z" fill="#ff9e85"></path>
              <path d="m184.46,146.03c1.137.111,2.152-.713,2.268-1.85.749-7.345,3.903-31.98,12.617-33.687,6.826-1.337,23.282,8.454,38.613,5.649,6.707-1.227,13.053.478,13.676,3.646.247,1.255,4.554-16.715-5.833-30.455-8.269-10.94-35.574-14.215-48.033-10.742-34.499,9.618-19.649,55.316-19.649,55.316l1.243,9.996c.12.965.893,1.718,1.861,1.812l3.237.315Z" fill="#0c0c0c"></path>
              <ellipse cx="231.286" cy="87.468" rx="9.344" ry="13.754" transform="translate(-12.707 47.326) rotate(-11.373)" fill="#0c0c0c"></ellipse>
            </g>
          </g>
          <rect x="443.553" y="423.977" width="2" height="419.473" transform="translate(-61.436 47.885) rotate(-5.768)" fill="#494949"></rect>
          <g>
            <path d="m520.921,789.739s5.362,27.794,31.385,29.343c26.023,1.549,20.38,22.28,20.38,22.28h-99.444v-49.684s47.68-1.938,47.68-1.938Z" fill="#367cff"></path>
            <path d="m331.733,772.191s-7.457,27.306,15.209,40.183c22.667,12.877,8.452,28.988,8.452,28.988l-89.232-43.896,21.931-44.582,43.639,19.307Z" fill="#367cff"></path>
            <g>
              <path d="m276.466,764.478l75.249-237.39h-136.399c-27.398,0-38.822-23.235-38.822-50.633s26.935-51.416,54.334-51.416h184.089c16.711,0,35.449,10.22,44.621,24.19,9.171,13.969,6.693,35.618.048,50.951l-120.498,292.667" fill="#262626"></path>
              <path d="m276.466,764.478l75.249-237.39h-136.399c-27.398,0-38.822-23.235-38.822-50.633s26.935-51.416,54.334-51.416h184.089c16.711,0,35.449,10.22,44.621,24.19,9.171,13.969,6.693,35.618.048,50.951l-120.498,292.667" fill="#0a0a0a" opacity=".8"></path>
              <path d="m467.522,815.55l-125.819-288.462-165.209-.011c-38.711-3.035-56.44-24.25-55.877-51.642.556-27.045,14.25-53.758,41.174-53.758h222.669c19.92.409,35.592,22.423,42.982,40.925l104.602,335.288" fill="#262626"></path>
              <path d="m109.347,422.008s-7.337,47.846,4.293,74.447c14.519,33.21,68.947,30.622,68.947,30.622l-3.067-105.4-70.173.331Z" fill="#262626"></path>
            </g>
          </g>
          <path d="m432.176,421.067l-116.701-24.182c-9.883-2.048-18.035-9.001-21.616-18.438l-45.901-120.953c-5.787-15.248,1.883-32.299,17.131-38.085,15.25-5.787,32.299,1.884,38.085,17.131l40.152,105.804,100.834,20.894s-9.961,58.249-11.983,57.83Z" fill="#367cff"></path>
          <path d="m297.197,288.209c-1.348,15.833-10.903,114.61-12.199,134.112H109.424c-1.009-17.589-4.284-92.266-8.109-126.661-3.652-32.821-4.976-51.551-.77-61.751,7.418-17.989,25.981-24.462,41.971-26.627,9.764-1.322,24.449-2.269,24.449-2.269,0,0,1.243,25.153,30.891,26.553,40.36,1.904,37.664-26.553,37.864-26.553,6.538,0,42.128,4.755,51.027,10.555,12.569,8.192,16.284,19.357,16.431,29.614.169,11.81-4.449,25.071-5.98,43.028Z" fill="#367cff"></path>
          <path d="m290.295,368.921c-.014,0-.028,0-.042-.002-.275-.022-.479-.264-.457-.54l4.558-54.754c.022-.275.255-.49.54-.457.275.022.479.264.457.54l-4.558,54.754c-.021.261-.24.458-.498.458Z" fill="#0c0c0c"></path>
          <g>
            <path d="m373.919,401.783l38.525-118.423c1.389-4.269,5.368-7.159,9.857-7.159h166.952c7.043,0,12.036,6.874,9.857,13.572l-48.525,118.423c-1.389,4.269-5.368,7.159-9.857,7.159h-156.952c-7.043,0-12.036-6.874-9.857-13.572Z" fill="#292a2e"></path>
            <path d="m373.919,401.783l38.525-118.423c1.389-4.269,5.368-7.159,9.857-7.159h166.952c7.043,0,12.036,6.874,9.857,13.572l-48.525,118.423c-1.389,4.269-5.368,7.159-9.857,7.159h-156.952c-7.043,0-12.036-6.874-9.857-13.572Z" fill="#292a2e"></path>
            <rect x="295.541" y="405.752" width="114.544" height="9.602" rx="4.74" ry="4.74" fill="#292a2e"></rect>
            <rect x="295.541" y="405.752" width="114.544" height="9.602" rx="4.74" ry="4.74" fill="#292a2e"></rect>
            <circle cx="481.514" cy="351.555" r="16.461" fill="#fff"></circle>
          </g>
          <g id="b_4_ha">
            <path d="m365.137,374.042l-26.221-9.191,3.764-.26c2.493-.273,4.522-2.384,4.379-4.888-.152-2.67-2.504-4.635-5.128-4.347l-46.39,4.93,1.205,14.908c.766,9.472,7.202,17.532,16.27,20.374l20.09,6.258c2.137.67,4.549-.161,5.609-2.134,1.024-1.906.599-4.059-.728-5.44.057-.047.11-.101.138-.175.053-.14.023-.287-.058-.401l3.704,1.161c2.393.75,5.099-.37,5.973-2.72.805-2.166-.107-4.506-1.995-5.612.045-.023.079-.054.114-.092l1.522.477c2.137.67,4.549-.161,5.609-2.134,1.241-2.307.361-4.983-1.68-6.204.008-.031.014-.063.014-.094l10.919,3.827c2.277.798,4.769-.401,5.567-2.677.798-2.277-.401-4.769-2.677-5.567Z" fill="#ff9e85"></path>
            <path id="b_4_ha_sh" d="m350.898,378.886c-.049,0-.099-.008-.149-.026l-10.563-3.841c-.226-.082-.342-.331-.26-.557.082-.226.332-.341.557-.26l10.563,3.841c.226.082.342.331.26.557-.064.177-.231.286-.409.286Z" fill="#0a0a0a" opacity=".2"></path>
            <path id="b_4_ha_sh-2" data-name="b_4_ha_sh" d="m345.559,386.565c-.048,0-.097-.008-.145-.025l-8.326-2.954c-.226-.08-.345-.329-.265-.555.08-.227.329-.346.555-.265l8.326,2.954c.226.08.345.329.265.555-.063.178-.231.29-.41.29Z" fill="#0a0a0a" opacity=".2"></path>
            <path id="b_4_ha_sh-3" data-name="b_4_ha_sh" d="m337.719,394.358c-.051,0-.104-.009-.155-.029l-3.899-1.487c-.224-.085-.337-.336-.252-.561.085-.226.336-.339.562-.252l3.899,1.487c.224.085.337.336.252.561-.066.174-.232.28-.407.28Z" fill="#0a0a0a" opacity=".2"></path>
          </g>
          <path d="m316.074,351.463l-109.999-.074-41.615-101.513-62.078,26.098,51.921,120.481.508,1.199c5.051,11.655,16.984,19.484,30.4,18.692l132.528-7.83-1.665-57.053Z" fill="#367cff"></path>
          <path d="m183.386,416.9c-12.51,0-24.02-7.475-29.035-19.046l-.509-1.203-44.24-102.656.918-.396,44.75,103.861c5.093,11.753,17.114,19.139,29.911,18.387l132.043-7.801-1.636-56.083-109.849-.074-31.998-78.053.925-.379,31.744,77.432,110.149.075,1.693,58.023-.485.028-132.528,7.83c-.619.037-1.239.055-1.854.055Z" fill="#0c0c0c"></path>
        </g>
        <g>
          <g>
            <g>
              <rect x="-168.8" y="632.714" width="419.473" height="2" transform="translate(-593.681 610.713) rotate(-84.228)" fill="#494949"></rect>
              <rect x="5.498" y="632.714" width="419.473" height="2" transform="translate(-436.912 784.127) rotate(-84.228)" fill="#494949"></rect>
            </g>
            <rect x="617.851" y="423.977" width="2" height="419.473" transform="translate(-60.554 65.402) rotate(-5.768)" fill="#494949"></rect>
          </g>
          <g>
            <rect x="17.587" y="416.845" width="627.391" height="16.387" rx="8.194" ry="8.194" fill="#292a2e"></rect>
            <rect x="17.587" y="416.845" width="627.391" height="16.387" rx="8.194" ry="8.194" fill="#fff" opacity=".8"></rect>
            <path d="m636.785,434.232H25.781c-5.069,0-9.194-4.124-9.194-9.193s4.125-9.194,9.194-9.194h611.004c5.069,0,9.193,4.125,9.193,9.194s-4.124,9.193-9.193,9.193ZM25.781,417.845c-3.967,0-7.194,3.227-7.194,7.194s3.227,7.193,7.194,7.193h611.004c3.967,0,7.193-3.227,7.193-7.193s-3.227-7.194-7.193-7.194H25.781Z" fill="#292a2e"></path>
          </g>
          <g>
            <rect x="198.548" y="416.845" width="446.43" height="16.387" rx="8.194" ry="8.194" fill="#fff"></rect>
            <path d="m636.785,434.232H206.742c-5.069,0-9.193-4.124-9.193-9.193s4.124-9.194,9.193-9.194h430.043c5.069,0,9.193,4.125,9.193,9.194s-4.124,9.193-9.193,9.193Zm-430.043-16.387c-3.966,0-7.193,3.227-7.193,7.194s3.227,7.193,7.193,7.193h430.043c3.967,0,7.193-3.227,7.193-7.193s-3.227-7.194-7.193-7.194H206.742Z" fill="#292a2e"></path>
          </g>
        </g>
      </g>
      <g>
        <path d="m653.265,709.44c-.256,0-.512-.098-.707-.293-1.409-1.409-3.706-27.259-9.892-104.223-2.531-31.492-4.922-61.238-6.667-79.315-.125-1.291-.625-1.441-.79-1.491-2.388-.721-9.652,5.007-13.707,10.022-.347.429-.977.497-1.407.149-.429-.348-.496-.977-.149-1.407,2.682-3.316,11.422-12.009,15.838-10.68.891.268,1.996,1.042,2.206,3.214,1.746,18.093,4.137,47.847,6.669,79.347,3.759,46.77,8.018,99.756,9.417,103.093.282.391.247.939-.105,1.291-.195.195-.451.293-.707.293Z" fill="#494949"></path>
        <ellipse cx="615.668" cy="536.626" rx="38.507" ry="28.398" transform="translate(-200.348 502.979) rotate(-38.715)" fill="#0cbc8b"></ellipse>
        <ellipse cx="615.668" cy="536.626" rx="38.507" ry="28.398" transform="translate(-200.348 502.979) rotate(-38.715)" fill="#fff" opacity=".2"></ellipse>
        <path d="m590.275,563.819c-.112,0-.225-.038-.319-.115-.212-.176-.242-.491-.065-.704l47.291-57.029c.176-.211.491-.242.704-.065.212.176.242.491.065.704l-47.291,57.029c-.099.119-.241.181-.385.181Z" fill="#fff"></path>
        <path d="m663.579,697.215c-.109,0-.22-.018-.329-.056-.521-.181-.797-.751-.616-1.273l17.764-51.087c1.066-3.065,3.586-5.351,6.741-6.112,3.156-.763,6.44.122,8.788,2.364l9.391,8.971c.399.381.414,1.015.032,1.414-.382.399-1.015.413-1.414.032l-9.391-8.971c-1.853-1.77-4.445-2.469-6.937-1.867-2.49.601-4.479,2.405-5.321,4.825l-17.764,51.087c-.144.413-.53.672-.944.672Z" fill="#494949"></path>
        <ellipse cx="707.658" cy="648.108" rx="28.398" ry="38.507" transform="translate(-249.456 579.138) rotate(-38.363)" fill="#0cbc8b"></ellipse>
        <path d="m645.195,706.182c-.452,0-.862-.309-.972-.768l-29.811-124.645c-.422-1.767-1.729-3.079-3.494-3.51-1.765-.429-3.53.133-4.718,1.506l-9.189,10.619c-.361.417-.994.463-1.411.102-.417-.361-.463-.993-.102-1.411l9.189-10.619c1.665-1.924,4.233-2.744,6.705-2.141,2.471.603,4.374,2.514,4.965,4.988l29.811,124.645c.128.537-.203,1.077-.74,1.205-.078.019-.156.027-.233.027Z" fill="#494949"></path>
        <ellipse cx="606.213" cy="612.236" rx="38.507" ry="28.398" transform="translate(-100.363 1105.264) rotate(-80.189)" fill="#0cbc8b"></ellipse>
        <path d="m653.266,709.44c-.041,0-.082-.002-.124-.007-.548-.068-.938-.567-.871-1.115l19.036-154.558c.43-3.486,2.78-6.296,6.135-7.335,3.354-1.039,6.883-.049,9.207,2.583l21.758,24.643c.366.414.326,1.046-.088,1.412-.414.366-1.046.326-1.411-.087l-21.758-24.643c-1.797-2.035-4.522-2.799-7.116-1.997-2.593.803-4.41,2.975-4.741,5.669l-19.036,154.558c-.062.507-.494.878-.991.878Z" fill="#494949"></path>
        <ellipse cx="697.028" cy="568.708" rx="28.398" ry="38.507" transform="translate(-138.003 903.37) rotate(-61.051)" fill="#0cbc8b"></ellipse>
        <ellipse cx="707.658" cy="648.108" rx="28.398" ry="38.507" transform="translate(-249.456 579.138) rotate(-38.363)" fill="#fff" opacity=".2"></ellipse>
        <ellipse cx="606.213" cy="612.236" rx="38.507" ry="28.398" transform="translate(-100.363 1105.264) rotate(-80.189)" fill="#fff" opacity=".5"></ellipse>
        <ellipse cx="697.028" cy="568.708" rx="28.398" ry="38.507" transform="translate(-138.003 903.37) rotate(-61.051)" fill="#fff" opacity=".5"></ellipse>
        <polygon points="677.613 840.582 628.917 840.582 620.847 684.778 685.682 684.778 677.613 840.582" fill="#292a2e"></polygon>
        <polygon points="677.613 840.582 628.917 840.582 620.847 684.778 685.682 684.778 677.613 840.582" fill="#fff" opacity=".3"></polygon>
        <path d="m731.558,678.802c-.148,0-.294-.065-.393-.189l-47.799-60.386c-.171-.217-.135-.531.082-.703.218-.172.532-.134.703.082l47.799,60.386c.171.217.135.531-.082.703-.092.073-.202.108-.31.108Z" fill="#fff"></path>
        <path d="m727.545,592.184c-.102,0-.206-.031-.294-.096l-61.167-44.663c-.223-.163-.272-.476-.109-.699.163-.223.476-.272.699-.109l61.167,44.663c.223.163.272.476.109.699-.098.134-.25.205-.404.205Z" fill="#fff"></path>
        <path d="m597.17,649.533c-.043,0-.086-.005-.129-.017-.267-.071-.425-.345-.354-.612l19.472-72.953c.071-.267.35-.424.612-.354.267.071.425.345.354.612l-19.472,72.953c-.06.224-.262.371-.482.371Z" fill="#fff"></path>
      </g>
      <g>
        <path d="m701.122,841.986H.702c-.388,0-.702-.314-.702-.702s.314-.702.702-.702h700.419c.388,0,.702.314.702.702s-.314.702-.702.702Z" fill="#292a2e"></path>
        <g fill="none" opacity=".65">
          <path d="m701.122,841.986H.702c-.388,0-.702-.314-.702-.702s.314-.702.702-.702h700.419c.388,0,.702.314.702.702s-.314.702-.702.702Z" fill="#292a2e"></path>
        </g>
      </g>
    </g>
  </g>
</svg>